PathFileType	4	(X/Y/Z)	45_2_51_p0_0-242_filt_butterworth.trc
DataRate	CameraRate	NumFrames	NumMarkers	Units	OrigDataRate	OrigDataStartFrame	OrigNumFrames
55.0	55.0	5	27	m	55.0	90	242
Frame#	Time	RHip			RKnee			RAnkle			RBigToe			RSmallToe			RHeel			LHip			LKnee			LAnkle			LBigToe			LSmallToe			LHeel			Neck			Head			Nose			RShoulder			RElbow			RWrist			RThumb			RIndex			RPinky			LShoulder			LElbow			LWrist			LThumb			LIndex			LPinky			
		X1	Y1	Z1	X2	Y2	Z2	X3	Y3	Z3	X4	Y4	Z4	X5	Y5	Z5	X6	Y6	Z6	X7	Y7	Z7	X8	Y8	Z8	X9	Y9	Z9	X10	Y10	Z10	X11	Y11	Z11	X12	Y12	Z12	X13	Y13	Z13	X14	Y14	Z14	X15	Y15	Z15	X16	Y16	Z16	X17	Y17	Z17	X18	Y18	Z18	X19	Y19	Z19	X20	Y20	Z20	X21	Y21	Z21	X22	Y22	Z22	X23	Y23	Z23	X24	Y24	Z24	X25	Y25	Z25	X26	Y26	Z26	X27	Y27	Z27	
90	1.6363636363636365	0.5188892213235186	0.4283439722956614	0.8065527951072009	0.5474768579968068	0.6050732341292717	1.2493013997048434	0.5905033118898557	0.7666091674839325	1.6731555721159037	0.6018752518467965	0.7010249984601155	1.7563267178066124	0.6539587921623178	0.6787505447380924	1.7391356512403913	0.575358776656357	0.869580364586589	1.7265952969783995	0.29782974531363626	0.4306318020020783	0.8350834474199264	0.3567480734218225	0.6491737339501651	1.2848117454040822	0.40793000012032565	0.8311353426474138	1.7271358041536304	0.4623345552605838	0.6764220544241776	1.7650528388611597	0.40002344439198656	0.678590168354478	1.76703033613851	0.4261127966457753	0.8653300775236547	1.7541773645073049	0.35347561083328816	0.1857034863037605	0.2884030315667011	0.3306853891478307	0.10867379465436759	0.06919247986233881	0.3561716627702092	0.08881844454611033	0.19447479743279159	0.5270519660513588	0.23546983558608856	0.3399039208759514	0.7159107439852236	0.0927504270883056	0.4635367244509028	0.5921088858391966	0.022116438010547853	0.2886891756963069	0.5102022712241625	0.03750605748672531	0.2081569088909116	0.5142472977616122	0.032506928709586366	0.18457277338347045	0.5611383065540145	-0.01945326967321282	0.213225235716966	0.20460152419161381	0.21030197963680952	0.3623774416164424	-0.0012478367793733983	0.09211426837358522	0.42350614835901934	0.1354342975692254	0.01163165179856706	0.26629219586827807	0.2080146197440729	-0.005963083320302518	0.19957698990476672	0.1983954832291493	-0.007282680152735706	0.17161997530425796	0.1679047650197422	0.025685858914153172	0.1706812168552566
91	1.6545454545454543	0.5199885438496139	0.4269748365322743	0.8073904465915479	0.5464611351187568	0.6012463609485209	1.2493904601345356	0.5904202153700921	0.766305820538771	1.6719537414881551	0.601554091891087	0.6996861893465051	1.7561747458009103	0.6524825468065718	0.6776090724056848	1.739473618253878	0.5755115285482392	0.8698701606454087	1.7269591961223043	0.2976776509936412	0.4312090925416601	0.836430925967526	0.3563437276798114	0.6495412494501404	1.284623761335385	0.40755762401879414	0.8301807382965197	1.725814072986025	0.4622680217115705	0.6768778019499486	1.7670652353082856	0.39942479352125004	0.6806653592425109	1.7678056650269638	0.42596564561736366	0.8641297845471491	1.7510648860778826	0.35662929407806604	0.1904327318898208	0.2847118193761016	0.33315645981680364	0.10209286482574277	0.0681282850573308	0.3562943386678228	0.09000430037059912	0.1966727085128809	0.5275594712352545	0.2411074944370954	0.3398406656771853	0.7130184444906736	0.12206589020547719	0.4865939608588157	0.5966890335714561	0.036561558933502505	0.31480828450809156	0.513315463001748	0.044129867740643855	0.23747508042871635	0.5167188060077572	0.03781204244507999	0.21454119258534682	0.5649439066146752	-0.003472820300397598	0.24406747840627435	0.20665666778900693	0.2149516418658411	0.3617213671953002	0.002559000859561996	0.11174576236073644	0.44460641012083735	0.13475839199231554	0.028292427064054677	0.2920340051973002	0.20099532261386785	0.03154591431112394	0.22638445561067916	0.19075047546962626	0.031151357374053754	0.19466778694476372	0.1641553103504215	0.0447446912464072	0.19810849174887435
92	1.6727272727272726	0.522448131275571	0.42545144745025476	0.8083186977053965	0.5461191292411443	0.5997736442053188	1.2491986717916288	0.59042250232627	0.7663433426107734	1.671574069095122	0.6006217652237307	0.6957302654474262	1.7555987886879019	0.651318712950859	0.6810032442014815	1.741089192740017	0.5763091919920635	0.8697730540112294	1.7274870236336795	0.2979501314855646	0.43141321137430566	0.8371510512208863	0.3560308078408822	0.6496985946703495	1.284518950321846	0.4074420991461583	0.8298045921399282	1.7253361145733455	0.4618939031125232	0.6765012839235713	1.7683701065837496	0.39931695766541797	0.6808537755881667	1.7686172846733843	0.42582275046795376	0.8634527946299608	1.7492766013865513	0.36228443031147517	0.19733601227689332	0.2802889237304028	0.3332781906374622	0.09915904849212827	0.06700894524547342	0.35637124983902785	0.0912311877235098	0.1978148108723698	0.5278439619898253	0.2451159301589364	0.34047798426445874	0.7083113369091696	0.15795265351631527	0.5118997495813711	0.5999189850135396	0.04655780096482377	0.3431510251667221	0.5158852007273882	0.04603319594232498	0.2659256809946076	0.5176229903591977	0.03731121108193026	0.2476259528815811	0.5662338430788354	0.006017949748549547	0.278738862062718	0.20887020071611823	0.2182897472556592	0.36232795349997016	0.006660408431629705	0.14099067704992346	0.4671332808922828	0.1339453609657863	0.044479191076257155	0.3203145034882818	0.19385489678469897	0.07023968349599623	0.25322940469125904	0.18518127784042926	0.06269407671438916	0.2211681725676848	0.15944867302901722	0.05708264801001736	0.22850460771886544
93	1.690909090909091	0.5247016449570757	0.4247337358115247	0.8095204605286901	0.5461464703692063	0.5997208860476945	1.2490481268034652	0.5904402376650474	0.7664589610178252	1.6716323806810203	0.5993679024082782	0.6904677447549084	1.7547698230069102	0.6508113413328149	0.6872423111135262	1.7431127801714235	0.5778007433404051	0.8693157137932662	1.7278797188990167	0.29804884714068774	0.43177023025419614	0.8374742499640587	0.3559152725413015	0.6496936409312635	1.2845268194251873	0.40754102433689215	0.8296081158448523	1.7249222367877233	0.4616508348880535	0.6759051127090384	1.7686481899281972	0.3993516600695472	0.6805979337198858	1.769102546763452	0.4258126766239995	0.863132594619374	1.748809050712311	0.36659050714609204	0.2047728175207866	0.27671056310381253	0.3322240023989854	0.09811407567497452	0.06731274036568932	0.35643423558935583	0.09184246215051403	0.19798290849025346	0.5277483421030936	0.2463783776585624	0.3413264395352034	0.7036836583524051	0.18748980349859454	0.5339348187318794	0.6008305318975564	0.051315821371098906	0.37102974307687453	0.5183925764889975	0.045710701784214436	0.29089372640981287	0.5187975894833182	0.034332195932241176	0.27705134097606565	0.5665540163433358	0.007594610890111023	0.30879976900742656	0.21179817321392957	0.22232602097424087	0.36400162924076673	0.009402424218095375	0.17553659103009378	0.48905797959430164	0.13194510429209366	0.059242602670163805	0.3471735059208807	0.189751589092276	0.0944809628805941	0.27793095569676035	0.18290733051889374	0.0799287621264954	0.24762802595443512	0.15518893330050224	0.06169410490147191	0.257814897294639
94	1.709090909090909	0.5261044350313411	0.42450237794661294	0.811064029819337	0.5462164736963124	0.5999481679563698	1.24901041057551	0.5903963299646131	0.7666501511540691	1.6717363172882904	0.5984762462753717	0.6868804530363223	1.7541519050541658	0.650758947399099	0.6908771076528214	1.7439015137320095	0.5794975155454269	0.8684264021070778	1.7278126182895441	0.2980664129264441	0.43216461790978705	0.8376635557982932	0.35589412298355666	0.6493916288018577	1.2843073317287088	0.4077863385962177	0.8291636380791471	1.7237862019804326	0.46176122276307296	0.6758346488434355	1.7679022097642345	0.3994660239040443	0.6802978291812202	1.769267912928315	0.4262613519122669	0.8633520040942817	1.7488990183413176	0.36775482872515486	0.21005155669725123	0.27488309587187215	0.33130564470276136	0.0980548668069045	0.06886154841162957	0.35651801211217204	0.09179580555707653	0.19779167365606415	0.5277499383852753	0.24591676000370283	0.34201023259738633	0.6997946498543183	0.20815593213711792	0.550461177897276	0.6001298041023492	0.05238279719419004	0.3963172653890987	0.5204505339310377	0.04518862874868138	0.31032676374184104	0.5222069780331227	0.0278924280240366	0.29997897733911355	0.5687493737029254	0.0029686322645982675	0.33021252979872334	0.21536991084704696	0.22836297823434334	0.36554288907259763	0.012250629874157322	0.20915811438028223	0.5099908867372972	0.12795813683698568	0.07381236894128923	0.36951745682118575	0.1889920059477374	0.10168997192560725	0.2995196171331781	0.1820890451502817	0.0849469017124938	0.2701061606943677	0.1510677987624689	0.05618742955162395	0.28441166488867253
